Coordinates
version=1
nRows=9
nColumns=36
inDegrees=yes

Units are S.I. units (second, meters, Newtons, ...)
If the header above contains a line with 'inDegrees', this indicates whether rotational values are in degrees (yes) or radians (no).

endheader
time	pelvis_tilt	pelvis_list	pelvis_rotation	pelvis_tx	pelvis_ty	pelvis_tz	hip_flexion_r	hip_adduction_r	hip_rotation_r	knee_angle_r	knee_angle_r_beta	ankle_angle_r	subtalar_angle_r	mtp_angle_r	hip_flexion_l	hip_adduction_l	hip_rotation_l	knee_angle_l	knee_angle_l_beta	ankle_angle_l	subtalar_angle_l	mtp_angle_l	lumbar_extension	lumbar_bending	lumbar_rotation	arm_flex_r	arm_add_r	arm_rot_r	elbow_flex_r	pro_sup_r	arm_flex_l	arm_add_l	arm_rot_l	elbow_flex_l	pro_sup_l
      3.23333330	      6.36028822	      9.46423459	     11.73339847	      0.44044223	      0.97952521	      0.09867686	      6.14819088	    -13.37590269	      2.78087878	     11.56216009	      0.20179776	    -39.09718263	    -22.01751539	     -7.49999987	     19.04997538	      4.05793483	     15.25089441	     16.63002698	      0.29024873	    -47.51954833	    -27.18231558	     -7.49999987	    -41.47166057	     -6.14535455	     -6.57911680	    -43.01881998	     -9.40634988	     -8.98687404	     72.80729489	     87.99949993	    -46.74297134	    -24.82451107	     -6.40884029	     77.76121134	     68.11097013
      3.25000000	      6.33057236	      9.18848055	     12.27896607	      0.44977006	      0.93991656	      0.09713566	      9.03474841	    -13.28448662	      4.37892173	     18.74849556	      0.32722298	    -34.84107311	    -24.94138116	     -7.49999987	     22.75660346	      4.30702527	     14.99947608	     23.43705365	      0.40905375	    -45.04557765	    -25.33526939	     -7.49999987	    -42.52851140	     -5.27371720	     -7.06207418	    -42.71722028	     -8.87482847	     -9.82986646	     70.17120404	     84.56492430	    -43.68053912	    -23.05329310	     -6.48505188	     74.47991263	     66.92579602
      3.26666670	      6.72606994	      8.67345712	     11.75876605	      0.47499187	      0.89394491	      0.09138355	     13.49490097	    -12.62963705	      6.17905343	     31.68855681	      0.55306965	    -22.27829287	    -26.92319224	     -7.49999987	     26.00377941	      4.14668974	     14.44662879	     31.56908801	      0.55098453	    -39.59038333	    -23.20975325	     -7.49999987	    -43.61225976	     -4.31484589	     -8.13972766	    -41.79259643	     -9.34670462	    -10.31538243	     67.17614195	     86.33448677	    -44.55023186	    -20.36551772	     -8.41873596	     74.10247643	     68.55054396
      3.28333330	      6.61736717	      8.91134240	     11.12675018	      0.48462222	      0.85853117	      0.09572695	     19.32652276	    -12.36736863	      8.01337718	     45.74437513	      0.79838996	     -7.21835748	    -26.83162094	     -7.49999987	     30.14195862	      4.44611277	     13.58707547	     40.86536349	      0.71323514	    -30.90482273	    -21.06545890	     -7.49999987	    -44.99957616	     -4.47965843	     -8.79220643	    -38.09104227	     -8.36138229	    -11.32043030	     62.42429637	     85.03500471	    -41.30629889	    -18.79954874	     -8.50974496	     71.44973682	     68.19100723
      3.30000000	      7.02164044	      9.31472637	     10.80652807	      0.49809791	      0.81885348	      0.09615020	     24.25036268	    -12.50691588	      8.85068365	     58.91848098	      1.02832148	     10.09962202	    -20.99993613	     -7.49999987	     33.45200198	      5.09356849	     13.69081769	     50.05169350	      0.87356685	    -21.79787222	    -21.25394485	     -7.49999987	    -46.75444961	     -4.46227355	     -9.43576872	    -33.13221418	     -7.74367235	    -10.66357530	     56.04983526	     83.88513221	    -35.86614701	    -17.56137969	     -7.76890257	     65.81692575	     67.98251706
      3.31666670	      7.50611569	      9.51067295	     11.01108411	      0.50524774	      0.79078256	      0.09656546	     27.70378785	    -12.54276105	      8.98779658	     68.84449084	      1.20156304	     22.44811860	    -16.49012863	     -7.49999987	     35.67023188	      6.09798560	     14.66060277	     57.61979292	      1.00565510	    -13.12271801	    -22.43296282	     -7.49999987	    -48.71805118	     -4.06672179	     -8.79957041	    -26.69851337	     -6.03690627	    -11.59988770	     49.94755635	     83.55888773	    -22.75149723	    -17.56071877	     -0.31175248	     52.10250098	     68.67421108
      3.33333330	      8.93666509	      9.43079177	     10.60082087	      0.50953128	      0.76284764	      0.09697562	     29.74597007	    -12.21225645	      9.24773607	     76.91959389	      1.34250017	     31.31375209	    -12.03806968	     -7.49999987	     37.00659719	      6.69075333	     15.51760317	     64.39265738	      1.12386389	     -5.68585274	    -24.02622122	     -7.49999987	    -51.90680450	     -3.82263426	     -5.93509270	    -21.30207093	     -5.01664056	    -12.95377252	     46.81717885	     83.04472040	     -7.66759780	    -17.03127142	     11.56284112	     35.10943686	     69.52365355
      3.35000000	      9.85346614	      9.38293038	      9.92357340	      0.51494092	      0.74213250	      0.09891991	     31.94914486	    -11.81545329	      9.74283776	     83.49796227	      1.45731436	     36.52284660	     -8.90612722	     -7.49999987	     38.55457250	      7.51614792	     16.29852314	     70.00982685	      1.22190199	     -1.72505210	    -27.06315840	     -7.49999987	    -56.77253241	     -4.21167964	     -5.22139895	    -13.99569735	     -5.39489147	    -11.13822261	     45.82825804	     82.90428739	      3.21891388	    -15.38290027	     14.64682363	     26.89596232	     69.64047930
      3.36666670	     10.50514107	      9.26736965	      9.26678514	      0.51163238	      0.72368857	      0.10185426	     33.94455738	    -11.13148813	     10.44720372	     88.18586534	      1.53913370	     39.57065368	     -7.62746330	     -7.49999987	     40.39828955	      8.08471920	     16.81440614	     74.66106064	      1.30308133	      0.62369776	    -29.50415921	     -7.49999987	    -62.70954534	     -4.69730855	     -2.20878274	     -7.59934278	     -5.36391978	    -13.87007726	     48.34956386	     83.62268017	     17.24377717	    -13.92996668	     26.77061087	     20.56020087	     71.85636542
